<svg version="1.1" xmlns="http://www.w3.org/2000/svg" style="display: block;" viewBox="0 0 2048 2048" width="1024" height="1024" preserveAspectRatio="none">
<path transform="translate(0,0)" fill="rgb(255,255,255)" d="M 0 0 L 2048 0 L 2048 2048 L 0 2048 L 0 0 z"/>
<path transform="translate(0,0)" fill="rgb(118,217,248)" d="M 1174.33 618.802 C 1186.22 516.245 1278.76 444.284 1376.88 430.728 C 1445.08 420.968 1514.36 438.777 1569.39 480.22 C 1610.98 511.884 1644.06 561.058 1651.17 613.458 C 1660.3 664.61 1647.27 718.658 1617.82 761.239 C 1599 788.452 1578.74 805.185 1552.97 824.744 C 1552.86 867.082 1552.35 911.311 1553.1 953.608 C 1525.25 925.161 1493.52 898.841 1464.6 871.373 C 1460.03 867.028 1454.31 861.625 1449.45 857.642 C 1376.7 865.955 1311.54 852.151 1253.61 805.547 C 1194.16 757.729 1166.86 694.207 1174.33 618.802 z"/>
<path transform="translate(0,0)" fill="rgb(81,201,244)" d="M 1174.33 618.802 L 1175.58 617.995 C 1177.45 619.668 1186.29 637.173 1188.88 641.425 C 1286.94 802.021 1538.61 799.695 1636.35 640.179 C 1641.44 631.876 1645.38 622.585 1650.65 614.267 L 1651.17 613.458 C 1660.3 664.61 1647.27 718.658 1617.82 761.239 C 1599 788.452 1578.74 805.185 1552.97 824.744 C 1552.86 867.082 1552.35 911.311 1553.1 953.608 C 1525.25 925.161 1493.52 898.841 1464.6 871.373 C 1460.03 867.028 1454.31 861.625 1449.45 857.642 C 1376.7 865.955 1311.54 852.151 1253.61 805.547 C 1194.16 757.729 1166.86 694.207 1174.33 618.802 z"/>
<path transform="translate(0,0)" fill="rgb(46,103,243)" d="M 1275.42 850.683 C 1330.26 879.597 1380.67 890.308 1442.47 883.889 C 1452.69 894.017 1462.9 903.098 1473.64 912.687 C 1462.86 919.629 1445.34 929.481 1436.06 936.068 C 1423.37 944.511 1406.66 954.11 1393.47 962.166 L 1306.95 1014.72 L 1105.59 1136.76 L 1023.78 1186.24 C 1009.84 1194.75 988.69 1207.02 976.278 1216.69 C 951.494 1235.89 935.411 1264.2 931.609 1295.32 C 926.974 1334.22 940.874 1361.26 963.796 1390.67 C 964.287 1400.56 965.19 1413.47 967.129 1423 C 935.95 1437.95 902.261 1444.47 868.759 1435.81 C 780.497 1412.99 744.27 1314.49 767.619 1232.19 C 779.285 1191.07 799.769 1158.09 830.313 1128.31 C 852.642 1106.54 876.809 1092.97 902.925 1077.16 L 979.206 1031.49 C 1061.19 980.917 1143.56 930.967 1226.31 881.64 L 1231.66 877.958 C 1240.05 873.749 1265.95 856.589 1275.42 850.683 z"/>
<path transform="translate(0,0)" fill="rgb(30,83,221)" d="M 1275.42 850.683 C 1330.26 879.597 1380.67 890.308 1442.47 883.889 C 1452.69 894.017 1462.9 903.098 1473.64 912.687 C 1462.86 919.629 1445.34 929.481 1436.06 936.068 C 1435.53 935.356 1434.3 933.723 1433.46 933.59 C 1419.64 931.586 1404.48 933.72 1390.5 933.129 C 1341.17 931.043 1292.17 917.286 1248.99 893.331 C 1241.95 889.427 1234.03 883.672 1226.31 881.64 L 1231.66 877.958 C 1240.05 873.749 1265.95 856.589 1275.42 850.683 z"/>
<path transform="translate(0,0)" fill="rgb(192,192,248)" d="M 868.701 797.064 C 869.803 792.42 877.531 774.635 879.705 769.631 C 904.724 712.051 953.418 657.745 1006.16 623.755 C 1041.83 600.761 1082.09 600.557 1122.3 610.188 C 1130.49 612.965 1141.46 616.316 1149.29 619.454 C 1140.46 707.034 1178.86 780.799 1248.11 832.741 C 1256.3 838.881 1268.02 844.699 1275.42 850.683 C 1265.95 856.589 1240.05 873.749 1231.66 877.958 C 1200.71 848.85 1187.4 814.668 1147.05 795.606 C 1116.64 786.042 1076.95 784.217 1052.34 808.515 C 1079.73 838.068 1115.47 873.566 1140.9 903.563 C 1109.17 922.59 1074.25 945.8 1042.57 963.364 C 1005.63 985.55 968.016 1009.92 930.984 1031.35 C 897.76 1029.4 870.295 1019.3 849.373 992 C 829.322 965.304 824.512 932.241 833.926 900.49 C 837.496 888.448 844.457 870.105 845.789 858.207 C 845.97 857.544 852.002 843.333 852.796 841.244 C 858.387 826.623 863.69 811.894 868.701 797.064 z"/>
<path transform="translate(0,0)" fill="rgb(138,150,245)" d="M 868.701 797.064 C 871.309 799.839 874.223 813.396 875.243 818.221 C 890.363 889.756 953.78 938.951 1024.56 947.858 C 1026.82 948.144 1028.7 947.793 1030.74 946.832 C 1034.65 952.368 1038.59 957.879 1042.57 963.364 C 1005.63 985.55 968.016 1009.92 930.984 1031.35 C 897.76 1029.4 870.295 1019.3 849.373 992 C 829.322 965.304 824.512 932.241 833.926 900.49 C 837.496 888.448 844.457 870.105 845.789 858.207 C 845.97 857.544 852.002 843.333 852.796 841.244 C 858.387 826.623 863.69 811.894 868.701 797.064 z"/>
<path transform="translate(0,0)" fill="rgb(138,150,245)" d="M 1122.3 610.188 C 1130.49 612.965 1141.46 616.316 1149.29 619.454 C 1140.46 707.034 1178.86 780.799 1248.11 832.741 C 1256.3 838.881 1268.02 844.699 1275.42 850.683 C 1265.95 856.589 1240.05 873.749 1231.66 877.958 C 1200.71 848.85 1187.4 814.668 1147.05 795.606 C 1142.89 784.8 1137.41 775.086 1132.93 762.529 C 1116.56 716.684 1108.41 657.447 1122.3 610.188 z"/>
<path transform="translate(0,0)" fill="rgb(30,83,221)" d="M 1030.74 946.832 C 1024.17 934.767 1019.62 925.069 1016.74 911.454 C 1010.62 883.564 1016.12 854.389 1031.97 830.638 C 1034.98 826.104 1047.41 809.477 1052.34 808.515 C 1079.73 838.068 1115.47 873.566 1140.9 903.563 C 1109.17 922.59 1074.25 945.8 1042.57 963.364 C 1038.59 957.879 1034.65 952.368 1030.74 946.832 z"/>
<path transform="translate(0,0)" fill="rgb(46,103,243)" d="M 506.155 978.26 C 502.425 974.615 494.64 959.281 492.181 954.019 C 475.002 917.266 466.097 877.609 468.92 836.95 C 472.802 783.483 497.725 733.735 538.226 698.613 C 582.761 660.012 635.865 645.759 693.843 649.947 C 678.179 669.146 660.911 700.422 652.478 722.965 C 636.08 767.893 622.102 826.402 642.061 871.914 C 658.954 910.432 698.168 927.946 738.447 923.604 C 758.548 921.437 772.905 914.827 791.12 906.499 C 816.69 890.456 826.385 881.3 845.789 858.207 C 844.457 870.105 837.496 888.448 833.926 900.49 C 824.512 932.241 829.322 965.304 849.373 992 C 870.295 1019.3 897.76 1029.4 930.984 1031.35 C 911.805 1043.81 882.053 1054.95 860.468 1062.93 C 794.466 1087.34 728.685 1103.68 658.283 1086.9 C 595.293 1072.03 540.663 1033.02 506.155 978.26 z"/>
<path transform="translate(0,0)" fill="rgb(30,83,221)" d="M 845.789 858.207 C 844.457 870.105 837.496 888.448 833.926 900.49 C 824.512 932.241 829.322 965.304 849.373 992 C 870.295 1019.3 897.76 1029.4 930.984 1031.35 C 911.805 1043.81 882.053 1054.95 860.468 1062.93 C 794.466 1087.34 728.685 1103.68 658.283 1086.9 C 595.293 1072.03 540.663 1033.02 506.155 978.26 C 520.849 983.49 533.41 993.056 548.119 998.732 C 607.655 1021.71 678.384 1018.8 732.988 984.218 C 761.245 966.321 788.522 936.256 800.91 904.803 C 796.782 906.034 795.304 906.789 791.12 906.499 C 816.69 890.456 826.385 881.3 845.789 858.207 z"/>
<path transform="translate(0,0)" fill="rgb(46,103,243)" d="M 1329.07 1264.39 L 1408.79 1264.5 C 1432.38 1264.5 1455.3 1266.17 1478.29 1261.34 C 1475.38 1325.09 1450.07 1385.19 1402.44 1428.44 C 1374.02 1454.23 1339.73 1472.68 1302.55 1482.18 C 1289.08 1485.58 1275.31 1487.6 1261.43 1488.21 C 1255.92 1488.5 1240.59 1487.66 1237.06 1490.91 C 1236.41 1505.23 1295.16 1598.43 1305.55 1620 L 1153.24 1620.28 C 1145.37 1605.66 1135.75 1590.61 1127.13 1576.29 L 1074.58 1488.95 C 1066.88 1475.58 1057.8 1461.4 1049.69 1448.16 C 1171.36 1437.06 1263.66 1379.42 1324.78 1272.89 L 1329.07 1264.39 z"/>
<path transform="translate(0,0)" fill="rgb(30,83,221)" d="M 1324.78 1272.89 C 1326.46 1279.34 1306.19 1321.35 1301.72 1329.2 C 1259.85 1402.87 1192 1457.36 1109.71 1478.95 C 1099.66 1481.58 1083.26 1484.41 1074.58 1488.95 C 1066.88 1475.58 1057.8 1461.4 1049.69 1448.16 C 1171.36 1437.06 1263.66 1379.42 1324.78 1272.89 z"/>
<path transform="translate(0,0)" fill="rgb(104,170,248)" d="M 447.911 899.632 C 462.026 963.095 489.853 1012.37 540.231 1054.64 C 596.549 1102.04 669.489 1124.94 742.795 1118.24 C 768.414 1115.76 793.768 1111.05 818.569 1104.16 C 772.859 1146.29 741.291 1202.54 736.223 1265.18 C 722.647 1265.11 708.682 1264.88 695.14 1265.07 C 675.391 1265.28 649.547 1266.02 630.158 1264.3 C 559.106 1257.69 493.668 1222.88 448.483 1167.65 C 387.163 1093.22 364.846 967.048 447.911 899.632 z"/>
<path transform="translate(0,0)" fill="rgb(138,150,245)" d="M 742.795 1118.24 C 768.414 1115.76 793.768 1111.05 818.569 1104.16 C 772.859 1146.29 741.291 1202.54 736.223 1265.18 C 722.647 1265.11 708.682 1264.88 695.14 1265.07 C 694.557 1228.95 706.71 1186.86 722.604 1154.49 C 728.463 1142.56 736.442 1130.36 742.795 1118.24 z"/>
<path transform="translate(0,0)" fill="rgb(167,213,87)" d="M 1285.15 1133.45 C 1303.6 1133.11 1324.59 1135.05 1343.15 1136.49 C 1330.73 1212.05 1305.77 1274.45 1251.32 1330.33 C 1194.12 1388.01 1116.76 1421.25 1035.55 1423.04 C 1046.99 1406.29 1057.53 1387.9 1069.84 1371.74 C 1101.34 1330.41 1144.17 1285.79 1185.6 1254.31 C 1190.7 1250.59 1195.95 1246.98 1200.55 1242.68 C 1114.72 1270.44 1046 1342.44 991.805 1411.23 C 990.506 1400.56 989.234 1389.13 988.87 1378.39 C 986.653 1319.37 1008.55 1261.98 1049.52 1219.43 C 1110.81 1154.54 1199.73 1136.17 1285.15 1133.45 z"/>
<path transform="translate(0,0)" fill="rgb(192,192,248)" d="M 835.103 599.399 C 877.881 595.816 921.703 604.375 957.929 628.101 C 948.11 634.474 934.361 648.588 925.888 657.454 C 894.647 689.724 869.73 727.563 852.426 769.011 C 843.367 791.273 836.179 821.478 825.221 842.209 C 816.129 859.409 790.002 879.392 772.445 887.987 C 699.612 923.205 647.492 878.223 659.011 799.45 C 673.229 702.217 728.853 610.615 835.103 599.399 z"/>
<path transform="translate(0,0)" fill="rgb(192,192,248)" d="M 1468.96 945.805 C 1476.95 950.395 1489.06 961.265 1495.86 967.526 C 1559.91 1026.43 1590.5 1137.31 1524.24 1206.2 C 1484.52 1247.5 1434.27 1239.49 1381.51 1239.56 L 1341.55 1238.96 C 1355.34 1206.23 1367.04 1163.18 1368.75 1127.69 L 1368.36 1127.1 C 1364.81 1121.64 1362.9 1120.05 1358.3 1115.61 C 1356.38 1083.36 1335.92 1061.72 1314.61 1040.02 C 1327.15 1030.41 1350.96 1017.67 1365 1008.91 C 1399.36 987.489 1434.55 967.219 1468.96 945.805 z"/>
</svg>